<svg version="1.1" id="Layer_1" xmlns="http://www.w3.org/2000/svg" xmlns:xlink="http://www.w3.org/1999/xlink" x="0px" y="0px"
	 width="100%" viewBox="0 0 2048 2048" enable-background="new 0 0 2048 2048" xml:space="preserve">
<path fill="#FFFFFF" opacity="1.000000" stroke="none" 
	d="
M1140.000000,2049.000000 
	C760.000000,2049.000000 380.500000,2049.000000 1.000000,2049.000000 
	C1.000000,1366.333374 1.000000,683.666687 1.000000,1.000000 
	C683.666687,1.000000 1366.333374,1.000000 2049.000000,1.000000 
	C2049.000000,683.666687 2049.000000,1366.333374 2049.000000,2049.000000 
	C1746.166626,2049.000000 1443.333374,2049.000000 1140.000000,2049.000000 
M655.129639,363.066620 
	C638.630188,363.112579 622.126648,362.939575 605.632080,363.248352 
	C566.950439,363.972443 541.868774,385.039917 536.348389,422.465210 
	C530.734436,460.524628 526.140320,498.733917 521.025269,536.867615 
	C516.441956,571.037231 511.687622,605.183960 507.157623,639.360596 
	C505.686005,650.463074 500.219025,658.559814 490.422058,663.884460 
	C479.161224,670.004944 467.980896,676.274536 456.681519,682.322205 
	C454.355682,683.567017 453.236023,684.836914 453.372589,687.659546 
	C453.670319,693.813538 453.732758,699.995728 453.499573,706.151611 
	C453.379456,709.322449 454.621338,710.820068 457.313293,712.223572 
	C468.088593,717.841614 478.657166,723.856384 489.438751,729.461853 
	C499.548126,734.717896 505.251068,742.947632 506.987701,754.051636 
	C508.145111,761.452332 509.231995,768.865967 510.216431,776.291565 
	C518.512817,838.871826 526.828857,901.449585 535.033447,964.041870 
	C539.636353,999.157471 562.875244,1022.342712 598.309387,1025.003174 
	C617.536072,1026.446777 636.934814,1025.601074 656.256104,1025.765503 
	C656.525879,1025.767700 656.798096,1025.474121 657.110107,1025.295044 
	C657.110107,1002.919617 657.110107,980.538513 657.110107,957.961426 
	C643.890869,957.961426 631.066040,958.141235 618.248840,957.908142 
	C606.682190,957.697876 601.625061,952.996094 600.064819,941.575256 
	C598.464050,929.857788 596.971313,918.125549 595.444702,906.398071 
	C589.596252,861.469116 583.737793,816.541504 577.913879,771.609375 
	C574.443359,744.834961 571.999207,717.733643 552.739868,696.418213 
	C565.382446,680.606140 571.373230,668.141235 574.061951,648.890564 
	C578.968994,613.756042 583.365601,578.550232 587.990112,543.376099 
	C592.267273,510.843323 596.462036,478.299133 600.911072,445.789825 
	C602.345642,435.307404 606.896240,431.362396 617.648315,431.028748 
	C629.137939,430.672180 640.643982,430.839844 652.142822,430.781799 
	C653.905518,430.772888 655.668335,430.780579 657.692993,430.780579 
	C657.692993,408.607422 657.711914,387.133423 657.623657,365.659882 
	C657.620178,364.800201 656.599854,363.944702 655.129639,363.066620 
M1491.087036,675.357483 
	C1495.567627,682.504883 1500.048340,689.652283 1504.636597,696.971191 
	C1494.256836,708.455811 1487.397827,722.616333 1484.997559,738.283752 
	C1479.475830,774.325989 1474.875610,810.510132 1469.970703,846.646057 
	C1465.625366,878.660278 1461.453003,910.698120 1457.035522,942.702271 
	C1455.549683,953.467346 1450.447266,957.832458 1439.619751,957.977844 
	C1428.291016,958.129944 1416.958496,957.995728 1405.627563,957.987122 
	C1403.874756,957.985840 1402.122070,957.987000 1400.472656,957.987000 
	C1400.472656,981.140137 1400.472656,1003.538818 1400.472656,1025.818970 
	C1419.325317,1025.818970 1437.869995,1026.770508 1456.282593,1025.616089 
	C1491.899658,1023.382935 1515.136230,1002.084717 1521.582642,967.062927 
	C1523.299072,957.737671 1524.199585,948.262268 1525.475830,938.855835 
	C1531.655762,893.307373 1537.795898,847.753479 1544.038330,802.213623 
	C1546.231567,786.213562 1548.516724,770.222595 1551.059937,754.275330 
	C1552.865845,742.951355 1558.493530,734.338562 1569.158447,728.956116 
	C1580.147095,723.410278 1590.677368,716.961914 1601.515869,711.107666 
	C1603.873047,709.834412 1604.917969,708.557190 1604.795166,705.773621 
	C1604.531372,699.785645 1604.513062,693.773560 1604.729126,687.783386 
	C1604.834229,684.867310 1603.848755,683.391968 1601.253906,682.032715 
	C1590.196167,676.240173 1579.295776,670.148438 1568.315918,664.206299 
	C1558.648682,658.974426 1552.600586,651.017639 1550.282227,640.287170 
	C1549.403931,636.221558 1548.584595,632.127075 1548.053955,628.005127 
	C1539.313477,560.114563 1530.728394,492.203796 1521.878784,424.327545 
	C1517.294189,389.166138 1497.568848,368.699677 1462.319946,364.902802 
	C1442.199219,362.735474 1421.732788,363.775970 1401.421631,363.397095 
	C1401.152710,363.392090 1400.877686,363.714905 1400.602417,363.896301 
	C1400.602417,386.132751 1400.602417,408.369171 1400.602417,430.945343 
	C1402.743774,430.945343 1404.553589,430.941010 1406.363403,430.946045 
	C1417.694092,430.977661 1429.028564,430.841980 1440.354370,431.093262 
	C1451.158569,431.332886 1455.759521,435.631989 1457.120850,446.296570 
	C1458.913330,460.338318 1460.545654,474.400543 1462.338135,488.442291 
	C1468.558838,537.172485 1474.833008,585.895752 1481.055542,634.625671 
	C1482.807129,648.342285 1484.222778,662.128296 1491.087036,675.357483 
M1058.500000,931.620605 
	C1111.324829,931.625183 1164.149780,931.724915 1216.974243,931.594971 
	C1244.287476,931.527832 1271.778076,932.913818 1298.869629,930.316956 
	C1337.429565,926.620850 1365.545410,905.423218 1383.252441,870.941895 
	C1391.166748,855.530273 1393.921021,838.884827 1393.900146,821.611145 
	C1393.793213,733.293213 1393.849854,644.975159 1393.773071,556.657166 
	C1393.767822,550.676514 1393.598389,544.627625 1392.719238,538.727600 
	C1388.020996,507.201080 1373.333496,481.622589 1346.685425,463.550690 
	C1328.920288,451.502838 1309.053711,446.157074 1287.677856,446.151581 
	C1207.025269,446.130829 1126.372803,446.110107 1045.720215,446.098999 
	C954.569275,446.086487 863.418335,446.121490 772.267395,446.053009 
	C747.822083,446.034668 725.454956,452.512299 706.009888,467.459747 
	C682.778137,485.318054 668.262085,508.741272 665.238770,538.091492 
	C663.660339,553.415344 664.199524,568.973694 664.081726,584.428345 
	C663.807617,620.411438 663.608337,656.395813 663.584595,692.379761 
	C663.567688,718.012634 663.923584,743.645569 664.041077,769.278809 
	C664.122009,786.942139 663.780396,804.613403 664.221130,822.266357 
	C664.435608,830.861816 665.294678,839.575684 667.086914,847.974487 
	C675.847351,889.025574 709.010071,921.437927 750.204529,928.683289 
	C762.085815,930.772888 774.358459,930.783020 786.470459,931.336731 
	C790.772156,931.533386 792.679321,931.861023 791.784241,937.170044 
	C788.685303,955.551025 786.221191,974.038574 783.483765,992.480896 
	C777.617798,1031.999390 771.726929,1071.514038 765.861877,1111.032593 
	C765.254272,1115.127319 764.752014,1119.237671 764.051575,1124.451782 
	C765.844482,1123.088135 766.532471,1122.644165 767.128845,1122.099854 
	C789.872070,1101.337036 812.630859,1080.591064 835.333984,1059.784424 
	C849.078186,1047.188110 862.663574,1034.417969 876.444458,1021.862305 
	C908.187439,992.941345 940.042114,964.142883 971.732178,935.164185 
	C974.536377,932.599854 977.247742,931.485413 981.013672,931.507019 
	C1006.508484,931.653564 1032.004395,931.603455 1058.500000,931.620605 
z"/>
<path fill="#414141" opacity="1.000000" stroke="none" 
	d="
M655.591492,363.076904 
	C656.599854,363.944702 657.620178,364.800201 657.623657,365.659882 
	C657.711914,387.133423 657.692993,408.607422 657.692993,430.780579 
	C655.668335,430.780579 653.905518,430.772888 652.142822,430.781799 
	C640.643982,430.839844 629.137939,430.672180 617.648315,431.028748 
	C606.896240,431.362396 602.345642,435.307404 600.911072,445.789825 
	C596.462036,478.299133 592.267273,510.843323 587.990112,543.376099 
	C583.365601,578.550232 578.968994,613.756042 574.061951,648.890564 
	C571.373230,668.141235 565.382446,680.606140 552.739868,696.418213 
	C571.999207,717.733643 574.443359,744.834961 577.913879,771.609375 
	C583.737793,816.541504 589.596252,861.469116 595.444702,906.398071 
	C596.971313,918.125549 598.464050,929.857788 600.064819,941.575256 
	C601.625061,952.996094 606.682190,957.697876 618.248840,957.908142 
	C631.066040,958.141235 643.890869,957.961426 657.110107,957.961426 
	C657.110107,980.538513 657.110107,1002.919617 657.110107,1025.295044 
	C656.798096,1025.474121 656.525879,1025.767700 656.256104,1025.765503 
	C636.934814,1025.601074 617.536072,1026.446777 598.309387,1025.003174 
	C562.875244,1022.342712 539.636353,999.157471 535.033447,964.041870 
	C526.828857,901.449585 518.512817,838.871826 510.216431,776.291565 
	C509.231995,768.865967 508.145111,761.452332 506.987701,754.051636 
	C505.251068,742.947632 499.548126,734.717896 489.438751,729.461853 
	C478.657166,723.856384 468.088593,717.841614 457.313293,712.223572 
	C454.621338,710.820068 453.379456,709.322449 453.499573,706.151611 
	C453.732758,699.995728 453.670319,693.813538 453.372589,687.659546 
	C453.236023,684.836914 454.355682,683.567017 456.681519,682.322205 
	C467.980896,676.274536 479.161224,670.004944 490.422058,663.884460 
	C500.219025,658.559814 505.686005,650.463074 507.157623,639.360596 
	C511.687622,605.183960 516.441956,571.037231 521.025269,536.867615 
	C526.140320,498.733917 530.734436,460.524628 536.348389,422.465210 
	C541.868774,385.039917 566.950439,363.972443 605.632080,363.248352 
	C622.126648,362.939575 638.630188,363.112579 655.591492,363.076904 
z"/>
<path fill="#414141" opacity="1.000000" stroke="none" 
	d="
M1490.945801,675.010315 
	C1484.222778,662.128296 1482.807129,648.342285 1481.055542,634.625671 
	C1474.833008,585.895752 1468.558838,537.172485 1462.338135,488.442291 
	C1460.545654,474.400543 1458.913330,460.338318 1457.120850,446.296570 
	C1455.759521,435.631989 1451.158569,431.332886 1440.354370,431.093262 
	C1429.028564,430.841980 1417.694092,430.977661 1406.363403,430.946045 
	C1404.553589,430.941010 1402.743774,430.945343 1400.602417,430.945343 
	C1400.602417,408.369171 1400.602417,386.132751 1400.604004,363.890503 
	C1400.877686,363.714905 1401.152710,363.392090 1401.421631,363.397095 
	C1421.732788,363.775970 1442.199219,362.735474 1462.319946,364.902802 
	C1497.568848,368.699677 1517.294189,389.166138 1521.878784,424.327545 
	C1530.728394,492.203796 1539.313477,560.114563 1548.053955,628.005127 
	C1548.584595,632.127075 1549.403931,636.221558 1550.282227,640.287170 
	C1552.600586,651.017639 1558.648682,658.974426 1568.315918,664.206299 
	C1579.295776,670.148438 1590.196167,676.240173 1601.253906,682.032715 
	C1603.848755,683.391968 1604.834229,684.867310 1604.729126,687.783386 
	C1604.513062,693.773560 1604.531372,699.785645 1604.795166,705.773621 
	C1604.917969,708.557190 1603.873047,709.834412 1601.515869,711.107666 
	C1590.677368,716.961914 1580.147095,723.410278 1569.158447,728.956116 
	C1558.493530,734.338562 1552.865845,742.951355 1551.059937,754.275330 
	C1548.516724,770.222595 1546.231567,786.213562 1544.038330,802.213623 
	C1537.795898,847.753479 1531.655762,893.307373 1525.475830,938.855835 
	C1524.199585,948.262268 1523.299072,957.737671 1521.582642,967.062927 
	C1515.136230,1002.084717 1491.899658,1023.382935 1456.282593,1025.616089 
	C1437.869995,1026.770508 1419.325317,1025.818970 1400.472656,1025.818970 
	C1400.472656,1003.538818 1400.472656,981.140137 1400.472656,957.987000 
	C1402.122070,957.987000 1403.874756,957.985840 1405.627563,957.987122 
	C1416.958496,957.995728 1428.291016,958.129944 1439.619751,957.977844 
	C1450.447266,957.832458 1455.549683,953.467346 1457.035522,942.702271 
	C1461.453003,910.698120 1465.625366,878.660278 1469.970703,846.646057 
	C1474.875610,810.510132 1479.475830,774.325989 1484.997559,738.283752 
	C1487.397827,722.616333 1494.256836,708.455811 1504.636597,696.971191 
	C1500.048340,689.652283 1495.567627,682.504883 1490.945801,675.010315 
z"/>
<path fill="#6BB0D0" opacity="1.000000" stroke="none" 
	d="
M1058.000000,931.618774 
	C1032.004395,931.603455 1006.508484,931.653564 981.013672,931.507019 
	C977.247742,931.485413 974.536377,932.599854 971.732178,935.164185 
	C940.042114,964.142883 908.187439,992.941345 876.444458,1021.862305 
	C862.663574,1034.417969 849.078186,1047.188110 835.333984,1059.784424 
	C812.630859,1080.591064 789.872070,1101.337036 767.128845,1122.099854 
	C766.532471,1122.644165 765.844482,1123.088135 764.051575,1124.451782 
	C764.752014,1119.237671 765.254272,1115.127319 765.861877,1111.032593 
	C771.726929,1071.514038 777.617798,1031.999390 783.483765,992.480896 
	C786.221191,974.038574 788.685303,955.551025 791.784241,937.170044 
	C792.679321,931.861023 790.772156,931.533386 786.470459,931.336731 
	C774.358459,930.783020 762.085815,930.772888 750.204529,928.683289 
	C709.010071,921.437927 675.847351,889.025574 667.086914,847.974487 
	C665.294678,839.575684 664.435608,830.861816 664.221130,822.266357 
	C663.780396,804.613403 664.122009,786.942139 664.041077,769.278809 
	C663.923584,743.645569 663.567688,718.012634 663.584595,692.379761 
	C663.608337,656.395813 663.807617,620.411438 664.081726,584.428345 
	C664.199524,568.973694 663.660339,553.415344 665.238770,538.091492 
	C668.262085,508.741272 682.778137,485.318054 706.009888,467.459747 
	C725.454956,452.512299 747.822083,446.034668 772.267395,446.053009 
	C863.418335,446.121490 954.569275,446.086487 1045.720215,446.098999 
	C1126.372803,446.110107 1207.025269,446.130829 1287.677856,446.151581 
	C1309.053711,446.157074 1328.920288,451.502838 1346.685425,463.550690 
	C1373.333496,481.622589 1388.020996,507.201080 1392.719238,538.727600 
	C1393.598389,544.627625 1393.767822,550.676514 1393.773071,556.657166 
	C1393.849854,644.975159 1393.793213,733.293213 1393.900146,821.611145 
	C1393.921021,838.884827 1391.166748,855.530273 1383.252441,870.941895 
	C1365.545410,905.423218 1337.429565,926.620850 1298.869629,930.316956 
	C1271.778076,932.913818 1244.287476,931.527832 1216.974243,931.594971 
	C1164.149780,931.724915 1111.324829,931.625183 1058.000000,931.618774 
M1378.021851,501.480072 
	C1375.274780,497.171692 1372.740723,492.708588 1369.741455,488.583649 
	C1360.383301,475.712860 1348.347900,465.854584 1334.230591,458.692505 
	C1318.377075,450.649536 1301.144897,448.073486 1283.642212,448.060974 
	C1112.315796,447.938873 940.989441,447.976288 769.663025,448.031036 
	C764.873047,448.032562 760.022217,448.371704 755.303772,449.169067 
	C732.083191,453.093109 711.900208,462.777496 695.334534,479.993439 
	C676.197266,499.881836 666.224121,523.587952 666.117981,550.867126 
	C665.767700,640.862122 665.926147,730.859436 666.052734,820.855652 
	C666.074829,836.524780 668.840759,851.837952 675.154053,866.283142 
	C681.753540,881.383179 691.102600,894.393066 704.139099,904.833862 
	C717.064392,915.185547 731.296265,922.307739 747.420776,926.097839 
	C760.859253,929.256470 774.429871,929.119995 788.037720,928.985168 
	C792.259094,928.943298 794.293884,930.595703 794.002991,934.905457 
	C793.868530,936.897095 794.081848,938.928528 793.791870,940.890808 
	C791.568420,955.933350 789.212708,970.956299 786.989197,985.998840 
	C783.894958,1006.932434 780.957825,1027.889526 777.807800,1048.814575 
	C774.978333,1067.610596 771.924377,1086.372803 769.038391,1105.160400 
	C768.508057,1108.612915 768.307983,1112.116089 767.865723,1116.481934 
	C769.894714,1115.620850 770.917603,1115.453979 771.567566,1114.871216 
	C782.073914,1105.451050 792.583374,1096.033447 802.987976,1086.501343 
	C812.789124,1077.521973 822.421814,1068.358887 832.210754,1059.365845 
	C851.777161,1041.390625 871.405396,1023.482788 890.996399,1005.534302 
	C899.447144,997.792053 907.828552,989.973816 916.311829,982.267578 
	C933.760132,966.417419 951.364563,950.736816 968.653687,934.715515 
	C972.872864,930.805725 977.262634,928.964539 982.928284,928.984802 
	C1013.147095,929.092712 1043.366455,929.036011 1073.585693,929.036194 
	C1088.172607,929.036316 1102.759399,929.036865 1117.346313,929.036560 
	C1140.876709,929.036011 1164.407837,928.933777 1187.937378,929.077576 
	C1199.398560,929.147583 1210.855835,929.846558 1222.317261,929.931030 
	C1228.774536,929.978638 1235.233276,929.200012 1241.697144,929.063660 
	C1261.318848,928.649597 1281.017578,929.314819 1300.547729,927.788330 
	C1323.837158,925.968079 1343.775391,915.367065 1360.303467,899.063904 
	C1381.945068,877.716858 1391.465454,851.124512 1391.980591,821.069031 
	C1392.157593,810.739136 1392.008667,800.403687 1392.008179,790.070740 
	C1392.006348,746.793823 1392.128540,703.516357 1391.964600,660.240051 
	C1391.823730,623.030273 1391.366943,585.821655 1391.028320,548.612732 
	C1390.877197,532.018494 1386.021484,516.679382 1378.021851,501.480072 
z"/>
<path fill="#41ACE4" opacity="1.000000" stroke="none" 
	d="
M1378.251709,501.775146 
	C1386.021484,516.679382 1390.877197,532.018494 1391.028320,548.612732 
	C1391.366943,585.821655 1391.823730,623.030273 1391.964600,660.240051 
	C1392.128540,703.516357 1392.006348,746.793823 1392.008179,790.070740 
	C1392.008667,800.403687 1392.157593,810.739136 1391.980591,821.069031 
	C1391.465454,851.124512 1381.945068,877.716858 1360.303467,899.063904 
	C1343.775391,915.367065 1323.837158,925.968079 1300.547729,927.788330 
	C1281.017578,929.314819 1261.318848,928.649597 1241.697144,929.063660 
	C1235.233276,929.200012 1228.774536,929.978638 1222.317261,929.931030 
	C1210.855835,929.846558 1199.398560,929.147583 1187.937378,929.077576 
	C1164.407837,928.933777 1140.876709,929.036011 1117.346313,929.036560 
	C1102.759399,929.036865 1088.172607,929.036316 1073.585693,929.036194 
	C1043.366455,929.036011 1013.147095,929.092712 982.928284,928.984802 
	C977.262634,928.964539 972.872864,930.805725 968.653687,934.715515 
	C951.364563,950.736816 933.760132,966.417419 916.311829,982.267578 
	C907.828552,989.973816 899.447144,997.792053 890.996399,1005.534302 
	C871.405396,1023.482788 851.777161,1041.390625 832.210754,1059.365845 
	C822.421814,1068.358887 812.789124,1077.521973 802.987976,1086.501343 
	C792.583374,1096.033447 782.073914,1105.451050 771.567566,1114.871216 
	C770.917603,1115.453979 769.894714,1115.620850 767.865723,1116.481934 
	C768.307983,1112.116089 768.508057,1108.612915 769.038391,1105.160400 
	C771.924377,1086.372803 774.978333,1067.610596 777.807800,1048.814575 
	C780.957825,1027.889526 783.894958,1006.932434 786.989197,985.998840 
	C789.212708,970.956299 791.568420,955.933350 793.791870,940.890808 
	C794.081848,938.928528 793.868530,936.897095 794.002991,934.905457 
	C794.293884,930.595703 792.259094,928.943298 788.037720,928.985168 
	C774.429871,929.119995 760.859253,929.256470 747.420776,926.097839 
	C731.296265,922.307739 717.064392,915.185547 704.139099,904.833862 
	C691.102600,894.393066 681.753540,881.383179 675.154053,866.283142 
	C668.840759,851.837952 666.074829,836.524780 666.052734,820.855652 
	C665.926147,730.859436 665.767700,640.862122 666.117981,550.867126 
	C666.224121,523.587952 676.197266,499.881836 695.334534,479.993439 
	C711.900208,462.777496 732.083191,453.093109 755.303772,449.169067 
	C760.022217,448.371704 764.873047,448.032562 769.663025,448.031036 
	C940.989441,447.976288 1112.315796,447.938873 1283.642212,448.060974 
	C1301.144897,448.073486 1318.377075,450.649536 1334.230591,458.692505 
	C1348.347900,465.854584 1360.383301,475.712860 1369.741455,488.583649 
	C1372.740723,492.708588 1375.274780,497.171692 1378.251709,501.775146 
z"/>
</svg>
