<svg version="1.1" id="Layer_1" xmlns="http://www.w3.org/2000/svg" xmlns:xlink="http://www.w3.org/1999/xlink" x="0px" y="0px"
	 width="100%" viewBox="0 0 2048 2048" enable-background="new 0 0 2048 2048" xml:space="preserve">
<path fill="none" opacity="1.000000" stroke="none" 
	d="
M655.129639,363.066620 
	C638.630188,363.112579 622.126648,362.939575 605.632080,363.248352 
	C566.950439,363.972443 541.868774,385.039917 536.348389,422.465210 
	C530.734436,460.524628 526.140320,498.733917 521.025269,536.867615 
	C516.441956,571.037231 511.687622,605.183960 507.157623,639.360596 
	C505.686005,650.463074 500.219025,658.559814 490.422058,663.884460 
	C479.161224,670.004944 467.980896,676.274536 456.681519,682.322205 
	C454.355682,683.567017 453.236023,684.836914 453.372589,687.659546 
	C453.670319,693.813538 453.732758,699.995728 453.499573,706.151611 
	C453.379456,709.322449 454.621338,710.820068 457.313293,712.223572 
	C468.088593,717.841614 478.657166,723.856384 489.438751,729.461853 
	C499.548126,734.717896 505.251068,742.947632 506.987701,754.051636 
	C508.145111,761.452332 509.231995,768.865967 510.216431,776.291565 
	C518.512817,838.871826 526.828857,901.449585 535.033447,964.041870 
	C539.636353,999.157471 562.875244,1022.342712 598.309387,1025.003174 
	C617.536072,1026.446777 636.934814,1025.601074 656.256104,1025.765503 
	C656.525879,1025.767700 656.798096,1025.474121 657.110107,1025.295044 
	C657.110107,1002.919617 657.110107,980.538513 657.110107,957.961426 
	C643.890869,957.961426 631.066040,958.141235 618.248840,957.908142 
	C606.682190,957.697876 601.625061,952.996094 600.064819,941.575256 
	C598.464050,929.857788 596.971313,918.125549 595.444702,906.398071 
	C589.596252,861.469116 583.737793,816.541504 577.913879,771.609375 
	C574.443359,744.834961 571.999207,717.733643 552.739868,696.418213 
	C565.382446,680.606140 571.373230,668.141235 574.061951,648.890564 
	C578.968994,613.756042 583.365601,578.550232 587.990112,543.376099 
	C592.267273,510.843323 596.462036,478.299133 600.911072,445.789825 
	C602.345642,435.307404 606.896240,431.362396 617.648315,431.028748 
	C629.137939,430.672180 640.643982,430.839844 652.142822,430.781799 
	C653.905518,430.772888 655.668335,430.780579 657.692993,430.780579 
	C657.692993,408.607422 657.711914,387.133423 657.623657,365.659882 
	C657.620178,364.800201 656.599854,363.944702 655.129639,363.066620 
M1491.087036,675.357483 
	C1495.567627,682.504883 1500.048340,689.652283 1504.636597,696.971191 
	C1494.256836,708.455811 1487.397827,722.616333 1484.997559,738.283752 
	C1479.475830,774.325989 1474.875610,810.510132 1469.970703,846.646057 
	C1465.625366,878.660278 1461.453003,910.698120 1457.035522,942.702271 
	C1455.549683,953.467346 1450.447266,957.832458 1439.619751,957.977844 
	C1428.291016,958.129944 1416.958496,957.995728 1405.627563,957.987122 
	C1403.874756,957.985840 1402.122070,957.987000 1400.472656,957.987000 
	C1400.472656,981.140137 1400.472656,1003.538818 1400.472656,1025.818970 
	C1419.325317,1025.818970 1437.869995,1026.770508 1456.282593,1025.616089 
	C1491.899658,1023.382935 1515.136230,1002.084717 1521.582642,967.062927 
	C1523.299072,957.737671 1524.199585,948.262268 1525.475830,938.855835 
	C1531.655762,893.307373 1537.795898,847.753479 1544.038330,802.213623 
	C1546.231567,786.213562 1548.516724,770.222595 1551.059937,754.275330 
	C1552.865845,742.951355 1558.493530,734.338562 1569.158447,728.956116 
	C1580.147095,723.410278 1590.677368,716.961914 1601.515869,711.107666 
	C1603.873047,709.834412 1604.917969,708.557190 1604.795166,705.773621 
	C1604.531372,699.785645 1604.513062,693.773560 1604.729126,687.783386 
	C1604.834229,684.867310 1603.848755,683.391968 1601.253906,682.032715 
	C1590.196167,676.240173 1579.295776,670.148438 1568.315918,664.206299 
	C1558.648682,658.974426 1552.600586,651.017639 1550.282227,640.287170 
	C1549.403931,636.221558 1548.584595,632.127075 1548.053955,628.005127 
	C1539.313477,560.114563 1530.728394,492.203796 1521.878784,424.327545 
	C1517.294189,389.166138 1497.568848,368.699677 1462.319946,364.902802 
	C1442.199219,362.735474 1421.732788,363.775970 1401.421631,363.397095 
	C1401.152710,363.392090 1400.877686,363.714905 1400.602417,363.896301 
	C1400.602417,386.132751 1400.602417,408.369171 1400.602417,430.945343 
	C1402.743774,430.945343 1404.553589,430.941010 1406.363403,430.946045 
	C1417.694092,430.977661 1429.028564,430.841980 1440.354370,431.093262 
	C1451.158569,431.332886 1455.759521,435.631989 1457.120850,446.296570 
	C1458.913330,460.338318 1460.545654,474.400543 1462.338135,488.442291 
	C1468.558838,537.172485 1474.833008,585.895752 1481.055542,634.625671 
	C1482.807129,648.342285 1484.222778,662.128296 1491.087036,675.357483 
M1252.203125,1600.696777 
	C1238.499512,1621.699585 1238.461670,1650.149780 1252.075684,1669.483032 
	C1269.827393,1694.692139 1308.617676,1696.102295 1324.987915,1673.473633 
	C1325.472656,1672.803467 1326.322266,1672.397217 1327.752930,1671.282837 
	C1327.752930,1677.109009 1327.752930,1682.034424 1327.752930,1686.894897 
	C1334.995850,1686.894897 1341.732422,1686.894897 1348.431885,1686.894897 
	C1348.431885,1638.658081 1348.431885,1590.762329 1348.431885,1542.647095 
	C1341.068970,1542.647095 1334.151367,1542.647095 1326.697510,1542.647095 
	C1326.697510,1561.202759 1326.697510,1579.568115 1326.697510,1597.933594 
	C1317.193726,1585.202271 1304.504639,1580.343384 1289.471313,1581.100830 
	C1274.413940,1581.859741 1261.770386,1587.697998 1252.203125,1600.696777 
M662.968628,1613.518799 
	C655.463928,1611.350464 647.885620,1609.404419 640.474915,1606.952148 
	C632.943237,1604.459717 625.343689,1601.956299 618.206848,1598.550537 
	C611.773010,1595.480103 609.821838,1589.372437 610.857971,1582.470947 
	C611.864441,1575.766846 616.280151,1572.022095 622.407288,1570.039185 
	C630.716858,1567.349976 639.274231,1567.031738 647.493835,1569.659668 
	C657.366638,1572.816162 666.932983,1576.930908 676.960510,1580.756104 
	C679.754761,1575.326050 682.922974,1569.169434 686.118469,1562.959717 
	C685.116516,1562.146240 684.523987,1561.562988 683.838989,1561.124146 
	C671.404541,1553.157959 657.776123,1548.452271 643.109497,1547.312622 
	C627.486023,1546.098511 612.541931,1548.236694 599.664124,1558.352295 
	C583.113342,1571.353027 578.874207,1605.493042 605.016479,1618.565308 
	C612.523010,1622.318848 620.921387,1624.325684 628.972961,1626.942505 
	C637.663513,1629.767090 646.542358,1632.050903 655.117371,1635.178467 
	C660.760437,1637.236694 665.170227,1641.092651 666.082703,1647.665894 
	C667.293457,1656.387573 663.664795,1662.780884 654.914246,1665.948730 
	C638.485413,1671.895752 622.739929,1668.911133 607.705750,1661.148071 
	C602.032410,1658.218994 596.833252,1654.371338 591.457336,1650.967285 
	C591.080505,1651.266479 590.745178,1651.420898 590.577515,1651.682617 
	C587.885254,1655.886963 585.463196,1660.292847 582.465088,1664.264404 
	C579.718201,1667.903442 580.239197,1669.985352 583.963318,1672.592773 
	C604.156311,1686.730225 626.474792,1692.003540 650.724182,1688.590088 
	C663.412231,1686.803955 674.928772,1681.881836 682.778381,1671.149902 
	C698.078735,1650.230957 689.212952,1623.936279 662.968628,1613.518799 
M1006.012756,1680.352783 
	C1006.012756,1682.490845 1006.012756,1684.628906 1006.012756,1687.585815 
	C1012.269958,1687.585815 1018.051941,1687.475220 1023.826721,1687.630737 
	C1026.865112,1687.712646 1027.942383,1686.571167 1027.870605,1683.548096 
	C1027.704590,1676.556641 1027.719604,1669.557983 1027.831177,1662.564941 
	C1027.855957,1661.002441 1028.075439,1658.924072 1029.062866,1657.980713 
	C1035.055176,1652.254761 1041.295776,1646.788574 1047.600586,1641.102905 
	C1047.959961,1641.609131 1049.041992,1643.047363 1050.033936,1644.545288 
	C1057.201538,1655.369263 1064.892090,1665.895630 1071.328247,1677.139404 
	C1076.138062,1685.541748 1082.096802,1689.306763 1091.723877,1687.740112 
	C1095.607666,1687.107910 1099.680176,1687.635864 1104.793701,1687.635864 
	C1102.742554,1684.411255 1101.723389,1682.713867 1100.613281,1681.078247 
	C1088.930298,1663.862061 1077.387207,1646.547363 1065.428467,1629.524780 
	C1062.507202,1625.366577 1062.876831,1622.669922 1066.224365,1619.342285 
	C1073.900879,1611.711426 1081.431396,1603.932251 1088.942993,1596.137817 
	C1092.987305,1591.941162 1096.870117,1587.588745 1101.655273,1582.408447 
	C1092.336792,1582.408447 1084.377930,1582.317505 1076.425293,1582.499512 
	C1075.125732,1582.529053 1073.552734,1583.480713 1072.615723,1584.482788 
	C1063.521729,1594.209351 1054.568726,1604.067505 1045.508301,1613.825684 
	C1040.009644,1619.747559 1034.392822,1625.560059 1028.064575,1632.227539 
	C1028.064575,1601.747925 1028.064575,1572.385742 1028.064575,1542.708008 
	C1020.570862,1542.708008 1013.525024,1542.708008 1006.011902,1542.708008 
	C1006.011902,1588.505371 1006.011902,1633.945190 1006.012756,1680.352783 
M1058.500000,931.620605 
	C1111.324829,931.625183 1164.149780,931.724915 1216.974243,931.594971 
	C1244.287476,931.527832 1271.778076,932.913818 1298.869629,930.316956 
	C1337.429565,926.620850 1365.545410,905.423218 1383.252441,870.941895 
	C1391.166748,855.530273 1393.921021,838.884827 1393.900146,821.611145 
	C1393.793213,733.293213 1393.849854,644.975159 1393.773071,556.657166 
	C1393.767822,550.676514 1393.598389,544.627625 1392.719238,538.727600 
	C1388.020996,507.201080 1373.333496,481.622589 1346.685425,463.550690 
	C1328.920288,451.502838 1309.053711,446.157074 1287.677856,446.151581 
	C1207.025269,446.130829 1126.372803,446.110107 1045.720215,446.098999 
	C954.569275,446.086487 863.418335,446.121490 772.267395,446.053009 
	C747.822083,446.034668 725.454956,452.512299 706.009888,467.459747 
	C682.778137,485.318054 668.262085,508.741272 665.238770,538.091492 
	C663.660339,553.415344 664.199524,568.973694 664.081726,584.428345 
	C663.807617,620.411438 663.608337,656.395813 663.584595,692.379761 
	C663.567688,718.012634 663.923584,743.645569 664.041077,769.278809 
	C664.122009,786.942139 663.780396,804.613403 664.221130,822.266357 
	C664.435608,830.861816 665.294678,839.575684 667.086914,847.974487 
	C675.847351,889.025574 709.010071,921.437927 750.204529,928.683289 
	C762.085815,930.772888 774.358459,930.783020 786.470459,931.336731 
	C790.772156,931.533386 792.679321,931.861023 791.784241,937.170044 
	C788.685303,955.551025 786.221191,974.038574 783.483765,992.480896 
	C777.617798,1031.999390 771.726929,1071.514038 765.861877,1111.032593 
	C765.254272,1115.127319 764.752014,1119.237671 764.051575,1124.451782 
	C765.844482,1123.088135 766.532471,1122.644165 767.128845,1122.099854 
	C789.872070,1101.337036 812.630859,1080.591064 835.333984,1059.784424 
	C849.078186,1047.188110 862.663574,1034.417969 876.444458,1021.862305 
	C908.187439,992.941345 940.042114,964.142883 971.732178,935.164185 
	C974.536377,932.599854 977.247742,931.485413 981.013672,931.507019 
	C1006.508484,931.653564 1032.004395,931.603455 1058.500000,931.620605 
M795.239319,1688.410400 
	C812.801086,1692.073730 828.566162,1689.103027 842.147705,1674.626343 
	C842.147705,1679.379517 842.147705,1682.923950 842.147705,1686.746338 
	C849.613342,1686.746338 856.481384,1686.746338 863.345154,1686.746338 
	C863.561890,1685.940552 863.796021,1685.474854 863.796997,1685.008667 
	C863.842712,1663.363647 864.309448,1641.706909 863.728760,1620.078247 
	C863.385254,1607.282837 858.636169,1595.965576 847.033813,1588.829956 
	C834.294250,1580.995117 820.259399,1580.042847 806.026917,1582.381836 
	C796.641968,1583.924194 787.476135,1586.799072 777.802429,1589.177979 
	C780.160889,1596.509644 782.057312,1602.405029 784.066406,1608.650635 
	C786.382751,1607.580933 787.990540,1606.720337 789.681030,1606.076660 
	C802.370361,1601.244629 815.247559,1598.881226 828.668518,1603.002686 
	C836.376221,1605.369507 844.185730,1614.791870 841.111450,1626.075195 
	C833.561218,1625.244873 825.999023,1624.137939 818.396973,1623.641357 
	C806.811401,1622.884766 795.411072,1624.013550 784.838867,1629.302490 
	C773.794922,1634.827148 767.294495,1647.771851 768.668213,1660.083374 
	C770.426453,1675.841187 780.037659,1684.149048 795.239319,1688.410400 
M1396.947998,1643.888794 
	C1423.035278,1643.888794 1449.122681,1643.888794 1475.709839,1643.888794 
	C1475.709839,1638.718018 1475.903442,1634.405884 1475.677979,1630.115845 
	C1474.361572,1605.070557 1459.683838,1586.825562 1437.248169,1582.192261 
	C1412.753296,1577.133789 1390.017090,1587.975342 1379.500488,1609.420166 
	C1366.834351,1635.248047 1374.641113,1675.923706 1409.715454,1686.542725 
	C1420.950562,1689.944214 1432.368286,1690.390991 1443.768677,1687.542603 
	C1453.484497,1685.115234 1461.838379,1680.188599 1469.070435,1672.805786 
	C1465.382324,1668.183838 1461.902466,1663.822754 1458.202148,1659.185425 
	C1448.536865,1668.820312 1437.175415,1672.505859 1424.206055,1671.080811 
	C1409.789307,1669.496826 1397.070068,1657.213989 1396.947998,1643.888794 
M1120.926880,1663.529297 
	C1139.252319,1692.903076 1182.577637,1698.146606 1207.400757,1673.994873 
	C1225.929688,1655.966919 1228.412231,1625.366089 1213.132202,1603.342651 
	C1198.834961,1582.735474 1167.878906,1575.201538 1144.084351,1586.538208 
	C1116.076660,1599.882080 1105.555786,1634.029663 1120.926880,1663.529297 
M977.334595,1665.158813 
	C975.218750,1662.892456 973.102966,1660.626099 971.031067,1658.406860 
	C951.430786,1673.554199 934.050476,1674.218750 920.756409,1660.603882 
	C908.381409,1647.929932 907.395264,1625.801758 918.593445,1612.027832 
	C923.544556,1605.937988 930.053894,1602.354004 937.651855,1601.058350 
	C950.783691,1598.819214 961.736755,1603.436279 970.850098,1613.118652 
	C975.462646,1607.587402 979.689758,1602.518311 983.859497,1597.518066 
	C967.483826,1576.657227 927.065186,1575.150269 906.266296,1594.305298 
	C881.982544,1616.669678 881.831909,1654.026489 905.935791,1676.277100 
	C927.054932,1695.772339 966.704712,1693.870972 983.698059,1672.263306 
	C981.769653,1670.100586 979.795471,1667.886475 977.334595,1665.158813 
M735.033691,1542.381714 
	C728.432922,1542.381714 721.832092,1542.381714 714.794189,1542.381714 
	C714.794189,1544.859985 714.802002,1546.667358 714.793030,1548.474854 
	C714.632385,1580.759766 714.418579,1613.044556 714.343323,1645.329712 
	C714.324341,1653.470337 714.318115,1661.652710 715.083862,1669.742188 
	C715.897705,1678.339600 720.344788,1685.550171 728.975647,1687.350098 
	C736.234070,1688.863647 744.037964,1687.878906 751.594055,1687.713257 
	C752.656616,1687.690063 754.541931,1686.074097 754.586731,1685.126343 
	C754.865173,1679.242310 754.726868,1673.338501 754.726868,1666.949463 
	C752.047913,1667.663818 750.629395,1668.052734 749.205383,1668.419922 
	C741.234314,1670.475342 737.361389,1667.630615 737.097778,1659.505615 
	C737.038330,1657.676270 737.057678,1655.843994 737.057007,1654.013062 
	C737.044495,1618.891357 737.052795,1583.769775 736.976624,1548.648193 
	C736.972229,1546.616455 736.285339,1544.586304 735.033691,1542.381714 
z"/>
<path fill="#414141" opacity="1.000000" stroke="none" 
	d="
M655.591492,363.076904 
	C656.599854,363.944702 657.620178,364.800201 657.623657,365.659882 
	C657.711914,387.133423 657.692993,408.607422 657.692993,430.780579 
	C655.668335,430.780579 653.905518,430.772888 652.142822,430.781799 
	C640.643982,430.839844 629.137939,430.672180 617.648315,431.028748 
	C606.896240,431.362396 602.345642,435.307404 600.911072,445.789825 
	C596.462036,478.299133 592.267273,510.843323 587.990112,543.376099 
	C583.365601,578.550232 578.968994,613.756042 574.061951,648.890564 
	C571.373230,668.141235 565.382446,680.606140 552.739868,696.418213 
	C571.999207,717.733643 574.443359,744.834961 577.913879,771.609375 
	C583.737793,816.541504 589.596252,861.469116 595.444702,906.398071 
	C596.971313,918.125549 598.464050,929.857788 600.064819,941.575256 
	C601.625061,952.996094 606.682190,957.697876 618.248840,957.908142 
	C631.066040,958.141235 643.890869,957.961426 657.110107,957.961426 
	C657.110107,980.538513 657.110107,1002.919617 657.110107,1025.295044 
	C656.798096,1025.474121 656.525879,1025.767700 656.256104,1025.765503 
	C636.934814,1025.601074 617.536072,1026.446777 598.309387,1025.003174 
	C562.875244,1022.342712 539.636353,999.157471 535.033447,964.041870 
	C526.828857,901.449585 518.512817,838.871826 510.216431,776.291565 
	C509.231995,768.865967 508.145111,761.452332 506.987701,754.051636 
	C505.251068,742.947632 499.548126,734.717896 489.438751,729.461853 
	C478.657166,723.856384 468.088593,717.841614 457.313293,712.223572 
	C454.621338,710.820068 453.379456,709.322449 453.499573,706.151611 
	C453.732758,699.995728 453.670319,693.813538 453.372589,687.659546 
	C453.236023,684.836914 454.355682,683.567017 456.681519,682.322205 
	C467.980896,676.274536 479.161224,670.004944 490.422058,663.884460 
	C500.219025,658.559814 505.686005,650.463074 507.157623,639.360596 
	C511.687622,605.183960 516.441956,571.037231 521.025269,536.867615 
	C526.140320,498.733917 530.734436,460.524628 536.348389,422.465210 
	C541.868774,385.039917 566.950439,363.972443 605.632080,363.248352 
	C622.126648,362.939575 638.630188,363.112579 655.591492,363.076904 
z"/>
<path fill="#414141" opacity="1.000000" stroke="none" 
	d="
M1490.945801,675.010315 
	C1484.222778,662.128296 1482.807129,648.342285 1481.055542,634.625671 
	C1474.833008,585.895752 1468.558838,537.172485 1462.338135,488.442291 
	C1460.545654,474.400543 1458.913330,460.338318 1457.120850,446.296570 
	C1455.759521,435.631989 1451.158569,431.332886 1440.354370,431.093262 
	C1429.028564,430.841980 1417.694092,430.977661 1406.363403,430.946045 
	C1404.553589,430.941010 1402.743774,430.945343 1400.602417,430.945343 
	C1400.602417,408.369171 1400.602417,386.132751 1400.604004,363.890503 
	C1400.877686,363.714905 1401.152710,363.392090 1401.421631,363.397095 
	C1421.732788,363.775970 1442.199219,362.735474 1462.319946,364.902802 
	C1497.568848,368.699677 1517.294189,389.166138 1521.878784,424.327545 
	C1530.728394,492.203796 1539.313477,560.114563 1548.053955,628.005127 
	C1548.584595,632.127075 1549.403931,636.221558 1550.282227,640.287170 
	C1552.600586,651.017639 1558.648682,658.974426 1568.315918,664.206299 
	C1579.295776,670.148438 1590.196167,676.240173 1601.253906,682.032715 
	C1603.848755,683.391968 1604.834229,684.867310 1604.729126,687.783386 
	C1604.513062,693.773560 1604.531372,699.785645 1604.795166,705.773621 
	C1604.917969,708.557190 1603.873047,709.834412 1601.515869,711.107666 
	C1590.677368,716.961914 1580.147095,723.410278 1569.158447,728.956116 
	C1558.493530,734.338562 1552.865845,742.951355 1551.059937,754.275330 
	C1548.516724,770.222595 1546.231567,786.213562 1544.038330,802.213623 
	C1537.795898,847.753479 1531.655762,893.307373 1525.475830,938.855835 
	C1524.199585,948.262268 1523.299072,957.737671 1521.582642,967.062927 
	C1515.136230,1002.084717 1491.899658,1023.382935 1456.282593,1025.616089 
	C1437.869995,1026.770508 1419.325317,1025.818970 1400.472656,1025.818970 
	C1400.472656,1003.538818 1400.472656,981.140137 1400.472656,957.987000 
	C1402.122070,957.987000 1403.874756,957.985840 1405.627563,957.987122 
	C1416.958496,957.995728 1428.291016,958.129944 1439.619751,957.977844 
	C1450.447266,957.832458 1455.549683,953.467346 1457.035522,942.702271 
	C1461.453003,910.698120 1465.625366,878.660278 1469.970703,846.646057 
	C1474.875610,810.510132 1479.475830,774.325989 1484.997559,738.283752 
	C1487.397827,722.616333 1494.256836,708.455811 1504.636597,696.971191 
	C1500.048340,689.652283 1495.567627,682.504883 1490.945801,675.010315 
z"/>
<path fill="#404040" opacity="1.000000" stroke="none" 
	d="
M1252.421875,1600.413818 
	C1261.770386,1587.697998 1274.413940,1581.859741 1289.471313,1581.100830 
	C1304.504639,1580.343384 1317.193726,1585.202271 1326.697510,1597.933594 
	C1326.697510,1579.568115 1326.697510,1561.202759 1326.697510,1542.647095 
	C1334.151367,1542.647095 1341.068970,1542.647095 1348.431885,1542.647095 
	C1348.431885,1590.762329 1348.431885,1638.658081 1348.431885,1686.894897 
	C1341.732422,1686.894897 1334.995850,1686.894897 1327.752930,1686.894897 
	C1327.752930,1682.034424 1327.752930,1677.109009 1327.752930,1671.282837 
	C1326.322266,1672.397217 1325.472656,1672.803467 1324.987915,1673.473633 
	C1308.617676,1696.102295 1269.827393,1694.692139 1252.075684,1669.483032 
	C1238.461670,1650.149780 1238.499512,1621.699585 1252.421875,1600.413818 
M1263.912720,1632.648193 
	C1263.466919,1644.128174 1266.464600,1654.408203 1274.733521,1662.710571 
	C1289.646973,1677.684692 1315.916870,1672.304810 1323.466064,1652.622314 
	C1327.796387,1641.332520 1327.760864,1629.752197 1323.616821,1618.428345 
	C1318.367798,1604.085693 1304.119019,1596.567017 1289.138184,1599.783325 
	C1274.516479,1602.922607 1265.350708,1614.544067 1263.912720,1632.648193 
z"/>
<path fill="#48AEE2" opacity="1.000000" stroke="none" 
	d="
M663.328003,1613.662109 
	C689.212952,1623.936279 698.078735,1650.230957 682.778381,1671.149902 
	C674.928772,1681.881836 663.412231,1686.803955 650.724182,1688.590088 
	C626.474792,1692.003540 604.156311,1686.730225 583.963318,1672.592773 
	C580.239197,1669.985352 579.718201,1667.903442 582.465088,1664.264404 
	C585.463196,1660.292847 587.885254,1655.886963 590.577515,1651.682617 
	C590.745178,1651.420898 591.080505,1651.266479 591.457336,1650.967285 
	C596.833252,1654.371338 602.032410,1658.218994 607.705750,1661.148071 
	C622.739929,1668.911133 638.485413,1671.895752 654.914246,1665.948730 
	C663.664795,1662.780884 667.293457,1656.387573 666.082703,1647.665894 
	C665.170227,1641.092651 660.760437,1637.236694 655.117371,1635.178467 
	C646.542358,1632.050903 637.663513,1629.767090 628.972961,1626.942505 
	C620.921387,1624.325684 612.523010,1622.318848 605.016479,1618.565308 
	C578.874207,1605.493042 583.113342,1571.353027 599.664124,1558.352295 
	C612.541931,1548.236694 627.486023,1546.098511 643.109497,1547.312622 
	C657.776123,1548.452271 671.404541,1553.157959 683.838989,1561.124146 
	C684.523987,1561.562988 685.116516,1562.146240 686.118469,1562.959717 
	C682.922974,1569.169434 679.754761,1575.326050 676.960510,1580.756104 
	C666.932983,1576.930908 657.366638,1572.816162 647.493835,1569.659668 
	C639.274231,1567.031738 630.716858,1567.349976 622.407288,1570.039185 
	C616.280151,1572.022095 611.864441,1575.766846 610.857971,1582.470947 
	C609.821838,1589.372437 611.773010,1595.480103 618.206848,1598.550537 
	C625.343689,1601.956299 632.943237,1604.459717 640.474915,1606.952148 
	C647.885620,1609.404419 655.463928,1611.350464 663.328003,1613.662109 
z"/>
<path fill="#47ADE3" opacity="1.000000" stroke="none" 
	d="
M1006.012329,1679.868896 
	C1006.011902,1633.945190 1006.011902,1588.505371 1006.011902,1542.708008 
	C1013.525024,1542.708008 1020.570862,1542.708008 1028.064575,1542.708008 
	C1028.064575,1572.385742 1028.064575,1601.747925 1028.064575,1632.227539 
	C1034.392822,1625.560059 1040.009644,1619.747559 1045.508301,1613.825684 
	C1054.568726,1604.067505 1063.521729,1594.209351 1072.615723,1584.482788 
	C1073.552734,1583.480713 1075.125732,1582.529053 1076.425293,1582.499512 
	C1084.377930,1582.317505 1092.336792,1582.408447 1101.655273,1582.408447 
	C1096.870117,1587.588745 1092.987305,1591.941162 1088.942993,1596.137817 
	C1081.431396,1603.932251 1073.900879,1611.711426 1066.224365,1619.342285 
	C1062.876831,1622.669922 1062.507202,1625.366577 1065.428467,1629.524780 
	C1077.387207,1646.547363 1088.930298,1663.862061 1100.613281,1681.078247 
	C1101.723389,1682.713867 1102.742554,1684.411255 1104.793701,1687.635864 
	C1099.680176,1687.635864 1095.607666,1687.107910 1091.723877,1687.740112 
	C1082.096802,1689.306763 1076.138062,1685.541748 1071.328247,1677.139404 
	C1064.892090,1665.895630 1057.201538,1655.369263 1050.033936,1644.545288 
	C1049.041992,1643.047363 1047.959961,1641.609131 1047.600586,1641.102905 
	C1041.295776,1646.788574 1035.055176,1652.254761 1029.062866,1657.980713 
	C1028.075439,1658.924072 1027.855957,1661.002441 1027.831177,1662.564941 
	C1027.719604,1669.557983 1027.704590,1676.556641 1027.870605,1683.548096 
	C1027.942383,1686.571167 1026.865112,1687.712646 1023.826721,1687.630737 
	C1018.051941,1687.475220 1012.269958,1687.585815 1006.012756,1687.585815 
	C1006.012756,1684.628906 1006.012756,1682.490845 1006.012329,1679.868896 
z"/>
<path fill="#6BB0D0" opacity="1.000000" stroke="none" 
	d="
M1058.000000,931.618774 
	C1032.004395,931.603455 1006.508484,931.653564 981.013672,931.507019 
	C977.247742,931.485413 974.536377,932.599854 971.732178,935.164185 
	C940.042114,964.142883 908.187439,992.941345 876.444458,1021.862305 
	C862.663574,1034.417969 849.078186,1047.188110 835.333984,1059.784424 
	C812.630859,1080.591064 789.872070,1101.337036 767.128845,1122.099854 
	C766.532471,1122.644165 765.844482,1123.088135 764.051575,1124.451782 
	C764.752014,1119.237671 765.254272,1115.127319 765.861877,1111.032593 
	C771.726929,1071.514038 777.617798,1031.999390 783.483765,992.480896 
	C786.221191,974.038574 788.685303,955.551025 791.784241,937.170044 
	C792.679321,931.861023 790.772156,931.533386 786.470459,931.336731 
	C774.358459,930.783020 762.085815,930.772888 750.204529,928.683289 
	C709.010071,921.437927 675.847351,889.025574 667.086914,847.974487 
	C665.294678,839.575684 664.435608,830.861816 664.221130,822.266357 
	C663.780396,804.613403 664.122009,786.942139 664.041077,769.278809 
	C663.923584,743.645569 663.567688,718.012634 663.584595,692.379761 
	C663.608337,656.395813 663.807617,620.411438 664.081726,584.428345 
	C664.199524,568.973694 663.660339,553.415344 665.238770,538.091492 
	C668.262085,508.741272 682.778137,485.318054 706.009888,467.459747 
	C725.454956,452.512299 747.822083,446.034668 772.267395,446.053009 
	C863.418335,446.121490 954.569275,446.086487 1045.720215,446.098999 
	C1126.372803,446.110107 1207.025269,446.130829 1287.677856,446.151581 
	C1309.053711,446.157074 1328.920288,451.502838 1346.685425,463.550690 
	C1373.333496,481.622589 1388.020996,507.201080 1392.719238,538.727600 
	C1393.598389,544.627625 1393.767822,550.676514 1393.773071,556.657166 
	C1393.849854,644.975159 1393.793213,733.293213 1393.900146,821.611145 
	C1393.921021,838.884827 1391.166748,855.530273 1383.252441,870.941895 
	C1365.545410,905.423218 1337.429565,926.620850 1298.869629,930.316956 
	C1271.778076,932.913818 1244.287476,931.527832 1216.974243,931.594971 
	C1164.149780,931.724915 1111.324829,931.625183 1058.000000,931.618774 
M1378.021851,501.480072 
	C1375.274780,497.171692 1372.740723,492.708588 1369.741455,488.583649 
	C1360.383301,475.712860 1348.347900,465.854584 1334.230591,458.692505 
	C1318.377075,450.649536 1301.144897,448.073486 1283.642212,448.060974 
	C1112.315796,447.938873 940.989441,447.976288 769.663025,448.031036 
	C764.873047,448.032562 760.022217,448.371704 755.303772,449.169067 
	C732.083191,453.093109 711.900208,462.777496 695.334534,479.993439 
	C676.197266,499.881836 666.224121,523.587952 666.117981,550.867126 
	C665.767700,640.862122 665.926147,730.859436 666.052734,820.855652 
	C666.074829,836.524780 668.840759,851.837952 675.154053,866.283142 
	C681.753540,881.383179 691.102600,894.393066 704.139099,904.833862 
	C717.064392,915.185547 731.296265,922.307739 747.420776,926.097839 
	C760.859253,929.256470 774.429871,929.119995 788.037720,928.985168 
	C792.259094,928.943298 794.293884,930.595703 794.002991,934.905457 
	C793.868530,936.897095 794.081848,938.928528 793.791870,940.890808 
	C791.568420,955.933350 789.212708,970.956299 786.989197,985.998840 
	C783.894958,1006.932434 780.957825,1027.889526 777.807800,1048.814575 
	C774.978333,1067.610596 771.924377,1086.372803 769.038391,1105.160400 
	C768.508057,1108.612915 768.307983,1112.116089 767.865723,1116.481934 
	C769.894714,1115.620850 770.917603,1115.453979 771.567566,1114.871216 
	C782.073914,1105.451050 792.583374,1096.033447 802.987976,1086.501343 
	C812.789124,1077.521973 822.421814,1068.358887 832.210754,1059.365845 
	C851.777161,1041.390625 871.405396,1023.482788 890.996399,1005.534302 
	C899.447144,997.792053 907.828552,989.973816 916.311829,982.267578 
	C933.760132,966.417419 951.364563,950.736816 968.653687,934.715515 
	C972.872864,930.805725 977.262634,928.964539 982.928284,928.984802 
	C1013.147095,929.092712 1043.366455,929.036011 1073.585693,929.036194 
	C1088.172607,929.036316 1102.759399,929.036865 1117.346313,929.036560 
	C1140.876709,929.036011 1164.407837,928.933777 1187.937378,929.077576 
	C1199.398560,929.147583 1210.855835,929.846558 1222.317261,929.931030 
	C1228.774536,929.978638 1235.233276,929.200012 1241.697144,929.063660 
	C1261.318848,928.649597 1281.017578,929.314819 1300.547729,927.788330 
	C1323.837158,925.968079 1343.775391,915.367065 1360.303467,899.063904 
	C1381.945068,877.716858 1391.465454,851.124512 1391.980591,821.069031 
	C1392.157593,810.739136 1392.008667,800.403687 1392.008179,790.070740 
	C1392.006348,746.793823 1392.128540,703.516357 1391.964600,660.240051 
	C1391.823730,623.030273 1391.366943,585.821655 1391.028320,548.612732 
	C1390.877197,532.018494 1386.021484,516.679382 1378.021851,501.480072 
z"/>
<path fill="#47ADE3" opacity="1.000000" stroke="none" 
	d="
M794.843384,1688.290771 
	C780.037659,1684.149048 770.426453,1675.841187 768.668213,1660.083374 
	C767.294495,1647.771851 773.794922,1634.827148 784.838867,1629.302490 
	C795.411072,1624.013550 806.811401,1622.884766 818.396973,1623.641357 
	C825.999023,1624.137939 833.561218,1625.244873 841.111450,1626.075195 
	C844.185730,1614.791870 836.376221,1605.369507 828.668518,1603.002686 
	C815.247559,1598.881226 802.370361,1601.244629 789.681030,1606.076660 
	C787.990540,1606.720337 786.382751,1607.580933 784.066406,1608.650635 
	C782.057312,1602.405029 780.160889,1596.509644 777.802429,1589.177979 
	C787.476135,1586.799072 796.641968,1583.924194 806.026917,1582.381836 
	C820.259399,1580.042847 834.294250,1580.995117 847.033813,1588.829956 
	C858.636169,1595.965576 863.385254,1607.282837 863.728760,1620.078247 
	C864.309448,1641.706909 863.842712,1663.363647 863.796997,1685.008667 
	C863.796021,1685.474854 863.561890,1685.940552 863.345154,1686.746338 
	C856.481384,1686.746338 849.613342,1686.746338 842.147705,1686.746338 
	C842.147705,1682.923950 842.147705,1679.379517 842.147705,1674.626343 
	C828.566162,1689.103027 812.801086,1692.073730 794.843384,1688.290771 
M793.050903,1664.171021 
	C799.125732,1673.395996 808.430237,1673.768188 817.949585,1672.943848 
	C833.427368,1671.603516 843.010315,1660.282593 841.884094,1644.906982 
	C841.792053,1643.649780 840.894104,1641.518677 840.103149,1641.385864 
	C828.323425,1639.406616 816.456238,1636.708130 804.545837,1639.851929 
	C793.092041,1642.875122 788.649963,1652.234009 793.050903,1664.171021 
z"/>
<path fill="#404040" opacity="1.000000" stroke="none" 
	d="
M1396.530762,1644.050293 
	C1397.070068,1657.213989 1409.789307,1669.496826 1424.206055,1671.080811 
	C1437.175415,1672.505859 1448.536865,1668.820312 1458.202148,1659.185425 
	C1461.902466,1663.822754 1465.382324,1668.183838 1469.070435,1672.805786 
	C1461.838379,1680.188599 1453.484497,1685.115234 1443.768677,1687.542603 
	C1432.368286,1690.390991 1420.950562,1689.944214 1409.715454,1686.542725 
	C1374.641113,1675.923706 1366.834351,1635.248047 1379.500488,1609.420166 
	C1390.017090,1587.975342 1412.753296,1577.133789 1437.248169,1582.192261 
	C1459.683838,1586.825562 1474.361572,1605.070557 1475.677979,1630.115845 
	C1475.903442,1634.405884 1475.709839,1638.718018 1475.709839,1643.888794 
	C1449.122681,1643.888794 1423.035278,1643.888794 1396.530762,1644.050293 
M1453.041870,1617.656616 
	C1446.387329,1602.564941 1435.233765,1596.283203 1420.096191,1599.101074 
	C1406.311279,1601.667114 1395.953857,1613.696411 1395.421631,1627.941406 
	C1415.326416,1627.941406 1435.224121,1627.941406 1455.788452,1627.941406 
	C1454.875488,1624.446655 1454.086426,1621.426636 1453.041870,1617.656616 
z"/>
<path fill="#404040" opacity="1.000000" stroke="none" 
	d="
M1120.743896,1663.208984 
	C1105.555786,1634.029663 1116.076660,1599.882080 1144.084351,1586.538208 
	C1167.878906,1575.201538 1198.834961,1582.735474 1213.132202,1603.342651 
	C1228.412231,1625.366089 1225.929688,1655.966919 1207.400757,1673.994873 
	C1182.577637,1698.146606 1139.252319,1692.903076 1120.743896,1663.208984 
M1180.048706,1668.819092 
	C1202.429810,1660.744141 1208.438477,1629.361084 1192.199829,1610.547241 
	C1186.514160,1603.959961 1178.998047,1600.340454 1170.300781,1600.086548 
	C1156.629639,1599.687378 1145.869263,1605.213501 1139.867432,1617.768555 
	C1132.862183,1632.422974 1134.268555,1646.762573 1144.566650,1659.403809 
	C1153.629639,1670.528931 1165.714966,1673.001343 1180.048706,1668.819092 
z"/>
<path fill="#47ADE3" opacity="1.000000" stroke="none" 
	d="
M977.577881,1665.415527 
	C979.795471,1667.886475 981.769653,1670.100586 983.698059,1672.263306 
	C966.704712,1693.870972 927.054932,1695.772339 905.935791,1676.277100 
	C881.831909,1654.026489 881.982544,1616.669678 906.266296,1594.305298 
	C927.065186,1575.150269 967.483826,1576.657227 983.859497,1597.518066 
	C979.689758,1602.518311 975.462646,1607.587402 970.850098,1613.118652 
	C961.736755,1603.436279 950.783691,1598.819214 937.651855,1601.058350 
	C930.053894,1602.354004 923.544556,1605.937988 918.593445,1612.027832 
	C907.395264,1625.801758 908.381409,1647.929932 920.756409,1660.603882 
	C934.050476,1674.218750 951.430786,1673.554199 971.031067,1658.406860 
	C973.102966,1660.626099 975.218750,1662.892456 977.577881,1665.415527 
z"/>
<path fill="#47ADE3" opacity="1.000000" stroke="none" 
	d="
M735.474854,1542.468506 
	C736.285339,1544.586304 736.972229,1546.616455 736.976624,1548.648193 
	C737.052795,1583.769775 737.044495,1618.891357 737.057007,1654.013062 
	C737.057678,1655.843994 737.038330,1657.676270 737.097778,1659.505615 
	C737.361389,1667.630615 741.234314,1670.475342 749.205383,1668.419922 
	C750.629395,1668.052734 752.047913,1667.663818 754.726868,1666.949463 
	C754.726868,1673.338501 754.865173,1679.242310 754.586731,1685.126343 
	C754.541931,1686.074097 752.656616,1687.690063 751.594055,1687.713257 
	C744.037964,1687.878906 736.234070,1688.863647 728.975647,1687.350098 
	C720.344788,1685.550171 715.897705,1678.339600 715.083862,1669.742188 
	C714.318115,1661.652710 714.324341,1653.470337 714.343323,1645.329712 
	C714.418579,1613.044556 714.632385,1580.759766 714.793030,1548.474854 
	C714.802002,1546.667358 714.794189,1544.859985 714.794189,1542.381714 
	C721.832092,1542.381714 728.432922,1542.381714 735.474854,1542.468506 
z"/>

<path fill="#41ACE4" opacity="1.000000" stroke="none" 
	d="
M1378.251709,501.775146 
	C1386.021484,516.679382 1390.877197,532.018494 1391.028320,548.612732 
	C1391.366943,585.821655 1391.823730,623.030273 1391.964600,660.240051 
	C1392.128540,703.516357 1392.006348,746.793823 1392.008179,790.070740 
	C1392.008667,800.403687 1392.157593,810.739136 1391.980591,821.069031 
	C1391.465454,851.124512 1381.945068,877.716858 1360.303467,899.063904 
	C1343.775391,915.367065 1323.837158,925.968079 1300.547729,927.788330 
	C1281.017578,929.314819 1261.318848,928.649597 1241.697144,929.063660 
	C1235.233276,929.200012 1228.774536,929.978638 1222.317261,929.931030 
	C1210.855835,929.846558 1199.398560,929.147583 1187.937378,929.077576 
	C1164.407837,928.933777 1140.876709,929.036011 1117.346313,929.036560 
	C1102.759399,929.036865 1088.172607,929.036316 1073.585693,929.036194 
	C1043.366455,929.036011 1013.147095,929.092712 982.928284,928.984802 
	C977.262634,928.964539 972.872864,930.805725 968.653687,934.715515 
	C951.364563,950.736816 933.760132,966.417419 916.311829,982.267578 
	C907.828552,989.973816 899.447144,997.792053 890.996399,1005.534302 
	C871.405396,1023.482788 851.777161,1041.390625 832.210754,1059.365845 
	C822.421814,1068.358887 812.789124,1077.521973 802.987976,1086.501343 
	C792.583374,1096.033447 782.073914,1105.451050 771.567566,1114.871216 
	C770.917603,1115.453979 769.894714,1115.620850 767.865723,1116.481934 
	C768.307983,1112.116089 768.508057,1108.612915 769.038391,1105.160400 
	C771.924377,1086.372803 774.978333,1067.610596 777.807800,1048.814575 
	C780.957825,1027.889526 783.894958,1006.932434 786.989197,985.998840 
	C789.212708,970.956299 791.568420,955.933350 793.791870,940.890808 
	C794.081848,938.928528 793.868530,936.897095 794.002991,934.905457 
	C794.293884,930.595703 792.259094,928.943298 788.037720,928.985168 
	C774.429871,929.119995 760.859253,929.256470 747.420776,926.097839 
	C731.296265,922.307739 717.064392,915.185547 704.139099,904.833862 
	C691.102600,894.393066 681.753540,881.383179 675.154053,866.283142 
	C668.840759,851.837952 666.074829,836.524780 666.052734,820.855652 
	C665.926147,730.859436 665.767700,640.862122 666.117981,550.867126 
	C666.224121,523.587952 676.197266,499.881836 695.334534,479.993439 
	C711.900208,462.777496 732.083191,453.093109 755.303772,449.169067 
	C760.022217,448.371704 764.873047,448.032562 769.663025,448.031036 
	C940.989441,447.976288 1112.315796,447.938873 1283.642212,448.060974 
	C1301.144897,448.073486 1318.377075,450.649536 1334.230591,458.692505 
	C1348.347900,465.854584 1360.383301,475.712860 1369.741455,488.583649 
	C1372.740723,492.708588 1375.274780,497.171692 1378.251709,501.775146 
z"/>
</svg>